<svg id="visual" viewBox="0 0 960 540" width="960" height="540" xmlns="http://www.w3.org/2000/svg" xmlns:xlink="http://www.w3.org/1999/xlink" version="1.1"><rect x="0" y="0" width="960" height="540" fill="#18181b"></rect><path d="M0 397L22.8 399.7C45.7 402.3 91.3 407.7 137 401.8C182.7 396 228.3 379 274 374.7C319.7 370.3 365.3 378.7 411.2 386.8C457 395 503 403 548.8 400.3C594.7 397.7 640.3 384.3 686 376.2C731.7 368 777.3 365 823 373.2C868.7 381.3 914.3 400.7 937.2 410.3L960 420L960 541L937.2 541C914.3 541 868.7 541 823 541C777.3 541 731.7 541 686 541C640.3 541 594.7 541 548.8 541C503 541 457 541 411.2 541C365.3 541 319.7 541 274 541C228.3 541 182.7 541 137 541C91.3 541 45.7 541 22.8 541L0 541Z" fill="#2563eb"></path><path d="M0 457L22.8 449.7C45.7 442.3 91.3 427.7 137 423.3C182.7 419 228.3 425 274 427.2C319.7 429.3 365.3 427.7 411.2 423.7C457 419.7 503 413.3 548.8 415C594.7 416.7 640.3 426.3 686 425.8C731.7 425.3 777.3 414.7 823 409.5C868.7 404.3 914.3 404.7 937.2 404.8L960 405L960 541L937.2 541C914.3 541 868.7 541 823 541C777.3 541 731.7 541 686 541C640.3 541 594.7 541 548.8 541C503 541 457 541 411.2 541C365.3 541 319.7 541 274 541C228.3 541 182.7 541 137 541C91.3 541 45.7 541 22.8 541L0 541Z" fill="#1f439c"></path><path d="M0 491L22.8 486.2C45.7 481.3 91.3 471.7 137 465.3C182.7 459 228.3 456 274 458.5C319.7 461 365.3 469 411.2 468.8C457 468.7 503 460.3 548.8 458.3C594.7 456.3 640.3 460.7 686 463.5C731.7 466.3 777.3 467.7 823 471.7C868.7 475.7 914.3 482.3 937.2 485.7L960 489L960 541L937.2 541C914.3 541 868.7 541 823 541C777.3 541 731.7 541 686 541C640.3 541 594.7 541 548.8 541C503 541 457 541 411.2 541C365.3 541 319.7 541 274 541C228.3 541 182.7 541 137 541C91.3 541 45.7 541 22.8 541L0 541Z" fill="#172554"></path></svg>